<svg width="202" height="202" viewBox="0 0 202 202" fill="none" xmlns="http://www.w3.org/2000/svg">
<rect x="-0.24993" width="35.6989" height="35.6989" transform="matrix(0.707106 -0.707107 0.707106 0.707107 0.926797 50.735)" fill="url(#paint0_linear_87_73)" stroke="black" stroke-width="0.353455"/>
<rect x="2.10675e-08" y="0.24993" width="35.6989" height="35.6989" transform="matrix(-0.707106 -0.707107 0.707106 -0.707107 100.722 201.427)" fill="url(#paint1_linear_87_73)" stroke="black" stroke-width="0.353455"/>
<rect x="-0.24993" width="35.6989" height="35.6989" transform="matrix(0.707106 -0.707107 0.707106 0.707107 100.853 50.7349)" fill="url(#paint2_linear_87_73)" stroke="black" stroke-width="0.353455"/>
<rect x="2.10675e-08" y="0.24993" width="35.6989" height="35.6989" transform="matrix(-0.707106 -0.707107 0.707106 -0.707107 100.722 101.501)" fill="url(#paint3_linear_87_73)" stroke="black" stroke-width="0.353455"/>
<rect x="-0.24993" width="35.6989" height="35.6989" transform="matrix(0.707106 -0.707107 0.707106 0.707107 51.0152 50.7349)" fill="url(#paint4_linear_87_73)" stroke="black" stroke-width="0.353455"/>
<rect x="2.10675e-08" y="0.24993" width="35.6989" height="35.6989" transform="matrix(-0.707106 -0.707107 0.707106 -0.707107 100.722 151.338)" fill="url(#paint5_linear_87_73)" stroke="black" stroke-width="0.353455"/>
<rect x="-0.24993" width="35.6989" height="35.6989" transform="matrix(0.707106 -0.707107 0.707106 0.707107 150.94 50.7349)" fill="url(#paint6_linear_87_73)" stroke="black" stroke-width="0.353455"/>
<rect x="2.10675e-08" y="0.24993" width="35.6989" height="35.6989" transform="matrix(-0.707106 -0.707107 0.707106 -0.707107 100.722 51.4127)" fill="url(#paint7_linear_87_73)" stroke="black" stroke-width="0.353455"/>
<defs>
<linearGradient id="paint0_linear_87_73" x1="3.77018" y1="35.3455" x2="-1.296" y2="0.942546" gradientUnits="userSpaceOnUse">
<stop stop-color="#D40000"/>
<stop offset="0.5" stop-color="#2F0B13"/>
<stop offset="1" stop-color="#307260"/>
</linearGradient>
<linearGradient id="paint1_linear_87_73" x1="3.77018" y1="35.3455" x2="-1.296" y2="0.942546" gradientUnits="userSpaceOnUse">
<stop stop-color="#D40000"/>
<stop offset="0.5" stop-color="#2F0B13"/>
<stop offset="1" stop-color="#307260"/>
</linearGradient>
<linearGradient id="paint2_linear_87_73" x1="3.77018" y1="35.3455" x2="-1.296" y2="0.942546" gradientUnits="userSpaceOnUse">
<stop stop-color="#D40000"/>
<stop offset="0.5" stop-color="#2F0B13"/>
<stop offset="1" stop-color="#307260"/>
</linearGradient>
<linearGradient id="paint3_linear_87_73" x1="3.77018" y1="35.3455" x2="-1.296" y2="0.942546" gradientUnits="userSpaceOnUse">
<stop stop-color="#D40000"/>
<stop offset="0.5" stop-color="#2F0B13"/>
<stop offset="1" stop-color="#307260"/>
</linearGradient>
<linearGradient id="paint4_linear_87_73" x1="3.77018" y1="35.3455" x2="-1.296" y2="0.942546" gradientUnits="userSpaceOnUse">
<stop stop-color="#D40000"/>
<stop offset="0.5" stop-color="#2F0B13"/>
<stop offset="1" stop-color="#307260"/>
</linearGradient>
<linearGradient id="paint5_linear_87_73" x1="3.77018" y1="35.3455" x2="-1.296" y2="0.942546" gradientUnits="userSpaceOnUse">
<stop stop-color="#D40000"/>
<stop offset="0.5" stop-color="#2F0B13"/>
<stop offset="1" stop-color="#307260"/>
</linearGradient>
<linearGradient id="paint6_linear_87_73" x1="3.77018" y1="35.3455" x2="-1.296" y2="0.942546" gradientUnits="userSpaceOnUse">
<stop stop-color="#D40000"/>
<stop offset="0.5" stop-color="#2F0B13"/>
<stop offset="1" stop-color="#307260"/>
</linearGradient>
<linearGradient id="paint7_linear_87_73" x1="3.77018" y1="35.3455" x2="-1.296" y2="0.942546" gradientUnits="userSpaceOnUse">
<stop stop-color="#D40000"/>
<stop offset="0.5" stop-color="#2F0B13"/>
<stop offset="1" stop-color="#307260"/>
</linearGradient>
</defs>
</svg>
